<svg viewBox="0 0 194 107" xmlns="http://www.w3.org/2000/svg">
    <g id="multipleAxisIcon">
        <g id="oneAxisIconTemplate">
            <rect id="axis" x="14.9999" y="50" width="50" height="3.3333" rx="1.66665"
                transform="rotate(-90 14.9999 50)" fill="currentColor" />
            <path id="arrow"
                d="M0 25.6667C0 30.269 7.46185 34 16.6665 34C25.8712 34 33.3933 30.269 33.3933 25.6667C33.3933 21.9353 29.9885 18.7767 23.2268 17.7148C21.9998 17.5222 21.8331 19.1089 23.2268 19.3344C29.0476 20.2762 31.7096 22.7643 31.6965 25.6667C31.6798 29.3486 25.0109 32.3029 16.7268 32.2653C8.4427 32.3029 1.71357 29.3486 1.69687 25.6667C1.68372 22.7643 4.34572 20.2762 10.1666 19.3344L10.1666 21.3826L13.8332 18.5246L10.1666 15.6667V17.7148C3.40479 18.7767 0 21.9353 0 25.6667Z"
                fill="currentColor" />
        </g>
        <g id="oneAxisIconTemplate_2">
            <rect id="axis" x="54.9999" y="50" width="50" height="3.3333" rx="1.66665"
                transform="rotate(-90 54.9999 50)" fill="currentColor" />
            <path id="arrow"
                d="M40 25.6667C40 30.269 47.4619 34 56.6665 34C65.8712 34 73.3933 30.269 73.3933 25.6667C73.3933 21.9353 69.9885 18.7767 63.2268 17.7148C61.9998 17.5222 61.8331 19.1089 63.2268 19.3344C69.0476 20.2762 71.7096 22.7643 71.6965 25.6667C71.6798 29.3486 65.0109 32.3029 56.7268 32.2653C48.4427 32.3029 41.7136 29.3486 41.6969 25.6667C41.6837 22.7643 44.3457 20.2762 50.1666 19.3344V21.3826L53.8332 18.5246L50.1666 15.6667V17.7148C43.4048 18.7767 40 21.9353 40 25.6667Z"
                fill="currentColor" />
        </g>
        <g id="oneAxisIconTemplate_3">
            <rect id="axis" x="94.9999" y="50" width="50" height="3.3333" rx="1.66665"
                transform="rotate(-90 94.9999 50)" fill="currentColor" />
            <path id="arrow"
                d="M80 25.6667C80 30.269 87.4619 34 96.6665 34C105.871 34 113.393 30.269 113.393 25.6667C113.393 21.9353 109.989 18.7767 103.227 17.7148C102 17.5222 101.833 19.1089 103.227 19.3344C109.048 20.2762 111.71 22.7643 111.696 25.6667C111.68 29.3486 105.011 32.3029 96.7268 32.2653C88.4427 32.3029 81.7136 29.3486 81.6969 25.6667C81.6837 22.7643 84.3457 20.2762 90.1666 19.3344V21.3826L93.8332 18.5246L90.1666 15.6667V17.7148C83.4048 18.7767 80 21.9353 80 25.6667Z"
                fill="currentColor" />
        </g>
        <g id="oneAxisIconTemplate_4">
            <rect id="axis" x="135" y="50" width="50" height="3.3333" rx="1.66665" transform="rotate(-90 135 50)"
                fill="currentColor" />
            <path id="arrow"
                d="M120 25.6667C120 30.269 127.462 34 136.667 34C145.871 34 153.393 30.269 153.393 25.6667C153.393 21.9353 149.989 18.7767 143.227 17.7148C142 17.5222 141.833 19.1089 143.227 19.3344C149.048 20.2762 151.71 22.7643 151.696 25.6667C151.68 29.3486 145.011 32.3029 136.727 32.2653C128.443 32.3029 121.714 29.3486 121.697 25.6667C121.684 22.7643 124.346 20.2762 130.167 19.3344V21.3826L133.833 18.5246L130.167 15.6667V17.7148C123.405 18.7767 120 21.9353 120 25.6667Z"
                fill="currentColor" />
        </g>
        <g id="oneAxisIconTemplate_5">
            <rect id="axis" x="175" y="50" width="50" height="3.3333" rx="1.66665" transform="rotate(-90 175 50)"
                fill="currentColor" />
            <path id="arrow"
                d="M160 25.6667C160 30.269 167.462 34 176.667 34C185.871 34 193.393 30.269 193.393 25.6667C193.393 21.9353 189.989 18.7767 183.227 17.7148C182 17.5222 181.833 19.1089 183.227 19.3344C189.048 20.2762 191.71 22.7643 191.696 25.6667C191.68 29.3486 185.011 32.3029 176.727 32.2653C168.443 32.3029 161.714 29.3486 161.697 25.6667C161.684 22.7643 164.346 20.2762 170.167 19.3344V21.3826L173.833 18.5246L170.167 15.6667V17.7148C163.405 18.7767 160 21.9353 160 25.6667Z"
                fill="currentColor" />
        </g>
        <g id="oneAxisIconTemplate_6">
            <rect id="axis" x="14.9999" y="107" width="50" height="3.3333" rx="1.66665"
                transform="rotate(-90 14.9999 107)" fill="currentColor" />
            <path id="arrow"
                d="M0 82.6667C0 87.269 7.46185 91 16.6665 91C25.8712 91 33.3933 87.269 33.3933 82.6667C33.3933 78.9353 29.9885 75.7767 23.2268 74.7148C21.9998 74.5222 21.8331 76.1089 23.2268 76.3344C29.0476 77.2762 31.7096 79.7643 31.6965 82.6667C31.6798 86.3486 25.0109 89.3029 16.7268 89.2653C8.4427 89.3029 1.71357 86.3486 1.69687 82.6667C1.68372 79.7643 4.34572 77.2762 10.1666 76.3344L10.1666 78.3826L13.8332 75.5246L10.1666 72.6667V74.7148C3.40479 75.7767 0 78.9353 0 82.6667Z"
                fill="currentColor" />
        </g>
        <g id="oneAxisIconTemplate_7">
            <rect id="axis" x="54.9999" y="107" width="50" height="3.3333" rx="1.66665"
                transform="rotate(-90 54.9999 107)" fill="currentColor" />
            <path id="arrow"
                d="M40 82.6667C40 87.269 47.4619 91 56.6665 91C65.8712 91 73.3933 87.269 73.3933 82.6667C73.3933 78.9353 69.9885 75.7767 63.2268 74.7148C61.9998 74.5222 61.8331 76.1089 63.2268 76.3344C69.0476 77.2762 71.7096 79.7643 71.6965 82.6667C71.6798 86.3486 65.0109 89.3029 56.7268 89.2653C48.4427 89.3029 41.7136 86.3486 41.6969 82.6667C41.6837 79.7643 44.3457 77.2762 50.1666 76.3344V78.3826L53.8332 75.5246L50.1666 72.6667V74.7148C43.4048 75.7767 40 78.9353 40 82.6667Z"
                fill="currentColor" />
        </g>
        <g id="oneAxisIconTemplate_8">
            <rect id="axis" x="94.9999" y="107" width="50" height="3.3333" rx="1.66665"
                transform="rotate(-90 94.9999 107)" fill="currentColor" />
            <path id="arrow"
                d="M80 82.6667C80 87.269 87.4619 91 96.6665 91C105.871 91 113.393 87.269 113.393 82.6667C113.393 78.9353 109.989 75.7767 103.227 74.7148C102 74.5222 101.833 76.1089 103.227 76.3344C109.048 77.2762 111.71 79.7643 111.696 82.6667C111.68 86.3486 105.011 89.3029 96.7268 89.2653C88.4427 89.3029 81.7136 86.3486 81.6969 82.6667C81.6837 79.7643 84.3457 77.2762 90.1666 76.3344V78.3826L93.8332 75.5246L90.1666 72.6667V74.7148C83.4048 75.7767 80 78.9353 80 82.6667Z"
                fill="currentColor" />
        </g>
        <g id="oneAxisIconTemplate_9">
            <rect id="axis" x="135" y="107" width="50" height="3.3333" rx="1.66665" transform="rotate(-90 135 107)"
                fill="currentColor" />
            <path id="arrow"
                d="M120 82.6667C120 87.269 127.462 91 136.667 91C145.871 91 153.393 87.269 153.393 82.6667C153.393 78.9353 149.989 75.7767 143.227 74.7148C142 74.5222 141.833 76.1089 143.227 76.3344C149.048 77.2762 151.71 79.7643 151.696 82.6667C151.68 86.3486 145.011 89.3029 136.727 89.2653C128.443 89.3029 121.714 86.3486 121.697 82.6667C121.684 79.7643 124.346 77.2762 130.167 76.3344V78.3826L133.833 75.5246L130.167 72.6667V74.7148C123.405 75.7767 120 78.9353 120 82.6667Z"
                fill="currentColor" />
        </g>
        <g id="oneAxisIconTemplate_10">
            <rect id="axis0" x="175" y="107" width="50" height="3.3333" rx="1.66665" transform="rotate(-90 175 107)"
                fill="currentColor" />
            <path id="arrow0"
                d="M160 82.6667C160 87.269 167.462 91 176.667 91C185.871 91 193.393 87.269 193.393 82.6667C193.393 78.9353 189.989 75.7767 183.227 74.7148C182 74.5222 181.833 76.1089 183.227 76.3344C189.048 77.2762 191.71 79.7643 191.696 82.6667C191.68 86.3486 185.011 89.3029 176.727 89.2653C168.443 89.3029 161.714 86.3486 161.697 82.6667C161.684 79.7643 164.346 77.2762 170.167 76.3344V78.3826L173.833 75.5246L170.167 72.6667V74.7148C163.405 75.7767 160 78.9353 160 82.6667Z"
                fill="currentColor" />
        </g>
    </g>
</svg>