<svg width="106" height="130" viewBox="0 0 106 130" fill="none" xmlns="http://www.w3.org/2000/svg">
    <g id="4dofRobotArm">
        <g id="baseAxis">
            <rect id="axis" x="87" y="130" width="31" height="3" rx="1.5" transform="rotate(-90 87 130)"
                fill="currentColor" />
            <path id="arrow"
                d="M72 112.666C72 117.269 79.4619 121 88.6666 121C97.8712 121 105.393 117.269 105.393 112.666C105.393 108.935 101.989 105.777 95.2268 104.715C93.9998 104.522 93.8332 106.109 95.2268 106.334C101.048 107.276 103.71 109.764 103.696 112.667C103.68 116.348 97.011 119.303 88.7268 119.265C80.4427 119.303 73.7136 116.348 73.6969 112.667C73.6837 109.764 76.3458 107.276 82.1666 106.334V108.382L85.8332 105.524L82.1666 102.666V104.715C75.4048 105.777 72 108.935 72 112.666Z"
                fill="currentColor" />
        </g>
        <path id="ring2" fill-rule="evenodd" clip-rule="evenodd"
            d="M88.5 97.9998C94.8513 97.9998 100 92.8511 100 86.4998C100 80.1485 94.8513 74.9998 88.5 74.9998C82.1487 74.9998 77 80.1485 77 86.4998C77 92.8511 82.1487 97.9998 88.5 97.9998ZM88.5 95.2119C93.3116 95.2119 97.2121 91.3114 97.2121 86.4998C97.2121 81.6882 93.3116 77.7877 88.5 77.7877C83.6884 77.7877 79.7879 81.6882 79.7879 86.4998C79.7879 91.3114 83.6884 95.2119 88.5 95.2119Z"
            fill="currentColor" />
        <path id="ring1" fill-rule="evenodd" clip-rule="evenodd"
            d="M88.5 22.9998C94.8513 22.9998 100 17.8511 100 11.4998C100 5.14854 94.8513 -0.000183105 88.5 -0.000183105C82.1487 -0.000183105 77 5.14854 77 11.4998C77 17.8511 82.1487 22.9998 88.5 22.9998ZM88.5 20.2119C93.3116 20.2119 97.2121 16.3114 97.2121 11.4998C97.2121 6.68825 93.3116 2.7877 88.5 2.7877C83.6884 2.7877 79.7879 6.68825 79.7879 11.4998C79.7879 16.3114 83.6884 20.2119 88.5 20.2119Z"
            fill="currentColor" />
        <rect id="axisConnector2" x="99.6111" y="23.9998" width="49.548" height="22.6111" rx="11.3056"
            transform="rotate(90 99.6111 23.9998)" fill="currentColor" />
        <rect id="axisConnector1" x="23" y="14.817" width="49.548" height="22.6111" rx="11.3056"
            transform="rotate(-14.9917 23 14.817)" fill="currentColor" />
        <path id="ring3" fill-rule="evenodd" clip-rule="evenodd"
            d="M23.0415 30.5C23.0415 24.1487 17.8928 19 11.5415 19C5.19028 19 0.0415497 24.1487 0.0415497 30.5C0.0415497 36.8513 5.19028 42 11.5415 42C17.8928 42 23.0415 36.8513 23.0415 30.5ZM20.2537 30.5C20.2537 25.6884 16.3531 21.7879 11.5415 21.7879C6.72998 21.7879 2.82943 25.6884 2.82943 30.5C2.82943 35.3116 6.72998 39.2121 11.5415 39.2121C16.3531 39.2121 20.2537 35.3116 20.2537 30.5Z"
            fill="currentColor" />
        <rect id="axisConnector3" x="35.7889" y="89.9067" width="49.548" height="22.6111" rx="11.3056"
            transform="rotate(-122.729 35.7889 89.9067)" fill="currentColor" />
    </g>
</svg>