<svg viewBox="0 0 178 178" fill="none" xmlns="http://www.w3.org/2000/svg">
    <g id="oneAxisIcon">
        <rect id="axis" x="32.3675" y="138.524" width="150" height="10" rx="5" transform="rotate(-45 32.3675 138.524)"
            fill="currentColor" />
        <path id="arrow"
            d="M52.1665 55.0854C42.4034 64.8485 50.3179 88.5922 69.8442 108.118C89.3704 127.645 113.242 135.687 123.005 125.924C130.92 118.009 130.398 104.085 118.307 87.4888C116.113 84.4773 112.393 87.4898 114.871 90.9244C125.221 105.27 125.59 116.195 119.405 122.324C111.559 130.099 91.1456 122.22 73.6519 104.566C55.9988 87.0727 47.991 66.531 55.766 58.6851C61.895 52.5003 72.8201 52.8692 87.166 63.2194L82.8212 67.5642L96.662 69.2797L94.9465 55.4389L90.6016 59.7837C74.005 47.6923 60.0819 47.1699 52.1665 55.0854Z"
            fill="CurrentColor" />
    </g>
</svg>