<svg viewBox="0 0 102 118" xmlns="http://www.w3.org/2000/svg">
    <g class="robotArm3dofSvg">
        <g id="baseAxis">
            <rect id="axis" x="83" y="118" width="31" height="3" rx="1.5" transform="rotate(-90 83 118)"
                fill="currentColor" />
            <path id="arrow"
                d="M68 100.667C68 105.269 75.4619 109 84.6665 109C93.8712 109 101.393 105.269 101.393 100.667C101.393 96.9353 97.9885 93.7767 91.2268 92.7148C89.9998 92.5222 89.8331 94.1089 91.2268 94.3344C97.0476 95.2762 99.7096 97.7643 99.6965 100.667C99.6798 104.349 93.0109 107.303 84.7268 107.265C76.4427 107.303 69.7136 104.349 69.6969 100.667C69.6837 97.7643 72.3457 95.2762 78.1666 94.3344V96.3826L81.8332 93.5246L78.1666 90.6667V92.7148C71.4048 93.7767 68 96.9353 68 100.667Z"
                fill="currentColor" />
        </g>
        <path id="ring2" fill-rule="evenodd" clip-rule="evenodd"
            d="M84.5 86C90.8513 86 96 80.8513 96 74.5C96 68.1487 90.8513 63 84.5 63C78.1487 63 73 68.1487 73 74.5C73 80.8513 78.1487 86 84.5 86ZM84.5 83.2121C89.3116 83.2121 93.2121 79.3116 93.2121 74.5C93.2121 69.6884 89.3116 65.7879 84.5 65.7879C79.6884 65.7879 75.7879 69.6884 75.7879 74.5C75.7879 79.3116 79.6884 83.2121 84.5 83.2121Z"
            fill="currentColor" />
        <path id="ring1" fill-rule="evenodd" clip-rule="evenodd"
            d="M43.5 23C49.8513 23 55 17.8513 55 11.5C55 5.14873 49.8513 0 43.5 0C37.1487 0 32 5.14873 32 11.5C32 17.8513 37.1487 23 43.5 23ZM43.5 20.2121C48.3116 20.2121 52.2121 16.3116 52.2121 11.5C52.2121 6.68843 48.3116 2.78788 43.5 2.78788C38.6884 2.78788 34.7879 6.68843 34.7879 11.5C34.7879 16.3116 38.6884 20.2121 43.5 20.2121Z"
            fill="currentColor" />
        <rect id="axisConnector2" x="59.8167" y="16" width="49.548" height="22.6111" rx="11.3056"
            transform="rotate(56.3239 59.8167 16)" fill="currentColor" />
        <rect id="axisConnector1" x="46.2837" y="28.5331" width="49.548" height="22.6111" rx="11.3056"
            transform="rotate(123.662 46.2837 28.5331)" fill="currentColor" />
    </g>
</svg>