<svg viewBox="0 0 133 89" xmlns="http://www.w3.org/2000/svg">
    <g id="twoAxisIcon">
        <g id="oneAxisIcon">
            <rect id="axis" x="15.8812" y="68.9142" width="75" height="4.99097" rx="2.49549"
                transform="rotate(-45 15.8812 68.9142)" fill="currentColor" />
            <path id="arrow"
                d="M25.8094 27.2236C20.9278 32.1052 24.8708 43.9627 34.6163 53.7082C44.3618 63.4537 56.2832 67.4605 61.1647 62.579C65.1224 58.6212 64.8678 51.6662 58.835 43.3809C57.7403 41.8775 55.8809 43.384 57.1172 45.0987C62.2811 52.2605 62.4605 57.7179 59.3681 60.7825C55.4452 64.67 45.251 60.7428 36.52 51.9321C27.7094 43.2011 23.7184 32.9431 27.6059 29.0203C30.6704 25.9279 36.1279 26.1072 43.2897 31.2712L41.1173 33.4436L48.0306 34.2943L47.1799 27.3809L45.0075 29.5533C36.7221 23.5206 29.7671 23.2659 25.8094 27.2236Z"
                fill="currentColor" />
        </g>
        <g id="oneAxisIcon_2">
            <rect id="axis" x="63.4742" y="15.8812" width="75" height="4.99097" rx="2.49549"
                transform="rotate(45 63.4742 15.8812)" fill="currentColor" />
            <path id="arrow"
                d="M105.165 25.8094C100.283 20.9278 88.4257 24.8708 78.6802 34.6163C68.9347 44.3618 64.9279 56.2832 69.8094 61.1647C73.7671 65.1225 80.7221 64.8678 89.0075 58.835C90.5109 57.7404 89.0044 55.8809 87.2897 57.1172C80.1279 62.2811 74.6705 62.4605 71.6059 59.3681C67.7184 55.4452 71.6456 45.2511 80.4562 36.52C89.1872 27.7094 99.4452 23.7184 103.368 27.6059C106.461 30.6704 106.281 36.1279 101.117 43.2897L98.9448 41.1173L98.0941 48.0307L105.007 47.1799L102.835 45.0075C108.868 36.7221 109.122 29.7671 105.165 25.8094Z"
                fill="currentColor" />
        </g>
    </g>
</svg>